<svg xmlns="http://www.w3.org/2000/svg" viewBox="0 0 1000 995.31"><defs><style>.a{fill:#fff;}</style></defs><rect width="1000" height="995.31"/><path class="a" d="M270.57,484.12h-69.4v64.94h19.68v-25h51.2c14.17,0,22-4.87,22-16.29v-7.19C293.84,490,285,484.12,270.57,484.12Zm6.55,20.73h-.21c0,4.65-.84,7.19-8.46,7.19h-47.6l.21-16.92H267.6c8.47,0,9.52,2.54,9.52,7Z"/><polygon class="a" points="339.32 495.96 359.42 523.68 317.53 523.68 307.17 534.68 367.67 534.68 378.04 549.06 401.31 549.06 351.17 481.37 339.32 495.96"/><path class="a" d="M707.22,500.19,684.8,484.12H653.91l36.39,26.65C695.58,507.18,701.72,503.37,707.22,500.19Z"/><path class="a" d="M155.69,509.29H99.42v-14H172c-1.9-5.93-8-11.43-18.83-11.43H100.47c-12.06,0-19,4.45-19,14.18v10.36c0,8.47,7.2,13.33,17.77,13.33h56.91v14.81H79.53c1.9,8,8,12.27,19,12.27H155.9c12.06,0,18-4.65,18-14.6V523.89C173.88,514.79,166.9,509.93,155.69,509.29Z"/><path class="a" d="M439,495.33h73.62c-1.91-7.62-9.31-11.43-19.89-11.43h-55c-9.52,0-18.62,3.81-18.62,14.18v36.39c0,10.36,9.1,14.17,18.62,14.17h55.64c12.69,0,17.13-3.6,19.25-12.27H439Z"/><path class="a" d="M714,528.75l27.5,20.1h31.1l-42.94-31.52C724.36,520.93,719.07,525,714,528.75Z"/><rect class="a" x="541.57" y="484.12" width="88.64" height="11.42"/><polygon class="a" points="559.34 516.91 598.9 516.91 598.9 505.91 539.46 505.91 539.46 549.06 627.25 549.06 627.25 536.79 559.34 536.79 559.34 516.91"/><path class="a" d="M655.39,545.47l-3.6,3.38H683.1C767.73,464,889.37,449,920.47,446.25,751.22,456,673,528.33,655.39,545.47Z"/></svg>